<svg width="72" height="72" viewBox="0 0 72 72" fill="none" xmlns="http://www.w3.org/2000/svg">
<path fill-rule="evenodd" clip-rule="evenodd" d="M41.2285 61.8368L37.84 65.2746C37.3833 65.7385 36.7637 65.9994 36.1175 66H34.8825C34.2363 65.9994 33.6167 65.7385 33.16 65.2746L25.75 57.7568C25.146 57.144 24.4866 56.4844 23.7851 55.7827C15.9927 47.9886 3 34.993 3 23.1351C3 13.1194 11.0029 5 20.875 5C25.1217 5.13425 29.1901 6.59052 32.5516 9.12206C33.61 9.91914 34.5983 10.8228 35.5 11.8254C36.4017 10.8228 37.39 9.91914 38.4484 9.12206C41.8099 6.59052 45.8783 5.13425 50.125 5C59.9971 5 68 13.1194 68 23.1351C68 28.0916 65.7299 33.2469 62.5185 38.138C61.4478 37.3444 60.2746 36.6812 59.0223 36.1721C62.0974 31.5415 64 27.0794 64 23.1351C64 15.2954 57.768 9.03447 50.1877 9.00014C45.727 9.15853 41.5026 11.133 38.4741 14.5003L35.5 17.807L32.5259 14.5003C29.4974 11.133 25.273 9.15853 20.8123 9.00014C13.232 9.03447 7 15.2954 7 23.1351C7 28.1713 10.1018 34.0516 14.7854 40.0489C18.604 44.9386 23.0185 49.3561 26.5667 52.9066L26.5671 52.907C27.2837 53.624 27.9649 54.3057 28.5988 54.9488L35.5 61.9505L38.8764 58.525C39.5192 59.729 40.3115 60.8412 41.2285 61.8368Z" fill="#9E9F9F"/>
<circle cx="53" cy="51" r="11" stroke="#9E9F9F" stroke-width="4"/>
<path d="M56.5356 47.4648L49.4646 54.5359" stroke="#9E9F9F" stroke-width="4" stroke-linecap="round"/>
<path d="M49.4644 47.4648L56.5354 54.5359" stroke="#9E9F9F" stroke-width="4" stroke-linecap="round"/>
</svg>
