<?xml version="1.0" encoding="UTF-8"?>
<svg id="Layer_2" data-name="Layer 2" xmlns="http://www.w3.org/2000/svg" viewBox="0 0 517.59 127.11">
  <defs>
    <style>
      .cls-1 {
        fill: #6900ff;
      }
    </style>
  </defs>
  <g id="Layer_1-2" data-name="Layer 1">
    <g id="Layer_1-2" data-name="Layer 1-2">
      <g>
        <g>
          <g>
            <path class="cls-1" d="M51.81,49.48l-2.85-6.46-7.02-.71c-.42-.04-.59-.57-.28-.85l5.26-4.7-1.49-6.9c-.09-.42,.36-.74,.72-.53l6.1,3.55,6.1-3.55c.37-.21,.81,.11,.72,.53l-1.49,6.9,5.26,4.7c.32,.28,.15,.81-.28,.85l-7.02,.71-2.85,6.46c-.17,.39-.72,.39-.9,0h.02Z"/>
            <path class="cls-1" d="M71.63,48.81l-1.44-3.27-3.55-.36c-.43-.04-.61-.58-.28-.87l2.66-2.38-.76-3.49c-.09-.43,.37-.76,.74-.54l3.08,1.8,3.08-1.8c.38-.22,.83,.11,.74,.54l-.76,3.49,2.66,2.38c.33,.29,.15,.83-.28,.87l-3.55,.36-1.44,3.27c-.18,.4-.74,.4-.92,0h.02Z"/>
            <path class="cls-1" d="M107.44,75.06c-4.83,19.3-22.3,33.6-43.1,33.6-24.53,0-44.42-19.89-44.42-44.43,0-12.75,5.37-24.24,13.97-32.33-.87,3.46-1.33,7.08-1.33,10.82,0,24.54,19.89,44.43,44.43,44.43,11.79,0,22.5-4.59,30.45-12.09Z"/>
            <g>
              <path class="cls-1" d="M107.49,94.77c-7.83,12.02-20.68,20.51-34.87,22.95-7.12,1.3-14.6,1.39-21.61-.62-6.99-2.01-13.54-5.63-18.56-10.71-.14-.14,.04-.4,.22-.29,4.65,2.51,9.3,4.66,14.3,6.15,22.82,7.04,45.2,1.38,60.23-17.69,.06-.08,.18-.1,.26-.03,.08,.06,.09,.17,.04,.25h-.01Z"/>
              <path class="cls-1" d="M64.34,11.36c17.64-.69,35.07,8.3,45.06,22.83,6.47,9.14,10.06,20.23,9.22,31.47-.45,6.59-2.23,13.2-5.48,18.91-.05,.09-.16,.12-.25,.07-.08-.04-.11-.13-.09-.21,1.17-4.17,1.98-8.36,2.35-12.56,.36-4.2,.29-8.41-.22-12.54-2.4-21.95-16.55-39.53-37.92-45.66-4.12-1.13-8.38-1.78-12.68-1.94-.1,0-.18-.09-.18-.19s.08-.17,.18-.18h.01Z"/>
              <path class="cls-1" d="M11.47,64.23c-.68-11.52,2.87-23.17,9.46-32.63,4.27-6.54,10.63-11.64,17.91-14.44,1.23-.4,2.46-.8,3.7-1.11,.19-.05,.32,.22,.15,.34-4.01,2.96-7.94,5.92-11.55,9.33-2.61,2.53-5.25,5.07-7.61,7.84-3.89,4.76-6.84,10.24-8.85,16.04-1.64,4.67-2.54,9.62-2.85,14.63,0,.1-.09,.18-.19,.17-.09,0-.17-.08-.17-.17h0Z"/>
              <path class="cls-1" d="M19.45,20.52C28.95,9.97,42.09,2.91,56.17,.83c7.06-1.1,14.4-1.25,21.39,.46,6.98,1.71,13.64,4.78,19.12,9.27,.16,.13,0,.4-.19,.31-4.86-1.99-9.64-3.75-14.7-4.94C58.76,.24,37.36,4.35,19.72,20.77c-.07,.07-.19,.07-.26,0s-.07-.18,0-.25h0Z"/>
              <path class="cls-1" d="M30.65,117.07c-13.58-7.98-23.72-21.21-28.15-36.35-3.2-10.85-3.53-21.91,.16-32.7,1.21-3.64,2.84-7.12,4.9-10.31,.06-.09,.17-.11,.26-.06,.07,.05,.1,.13,.08,.21-1.09,3.61-2.06,7.19-2.73,10.81-.67,3.62-1.13,7.25-1.27,10.89-.25,6.34-.06,12.81,1.26,19.03,2.43,11.71,8.63,22.57,17.11,31.03,2.67,2.61,5.55,4.97,8.59,7.14,.09,.06,.11,.18,.04,.26-.06,.08-.16,.09-.24,.05h-.01Z"/>
              <path class="cls-1" d="M117.18,30.55c23.73,34.39,5.51,86-36,95.18-5.54,1.27-11.26,1.69-16.84,1.15-.1,0-.18-.1-.17-.2,0-.09,.08-.16,.17-.17,11.09-1,21.7-4.39,30.88-10.12,24.42-14.74,36.08-42.86,28.26-70.48-1.52-5.3-3.75-10.42-6.61-15.17-.05-.09-.02-.2,.06-.25,.08-.05,.19-.03,.25,.05h0Z"/>
              <circle class="cls-1" cx="89.87" cy="59.38" r="7.91"/>
            </g>
            <path class="cls-1" d="M89.48,43.46l-2.61,4.95c-.15,.28,.06,.62,.37,.62h5.22c.32,0,.52-.34,.37-.62l-2.61-4.95c-.16-.3-.59-.3-.75,0h0Z"/>
            <path class="cls-1" d="M78.34,48.4l1.66,5.35c.09,.3,.48,.4,.7,.17l3.69-3.69c.22-.22,.13-.61-.17-.7l-5.35-1.66c-.32-.1-.63,.2-.53,.53Z"/>
            <path class="cls-1" d="M73.95,59.76l4.95,2.61c.28,.15,.62-.06,.62-.37v-5.22c0-.32-.34-.52-.62-.37l-4.95,2.61c-.3,.16-.3,.59,0,.75h0Z"/>
            <path class="cls-1" d="M78.89,70.9l5.35-1.66c.3-.09,.4-.48,.17-.7l-3.69-3.69c-.22-.22-.61-.13-.7,.17l-1.66,5.35c-.1,.32,.2,.63,.53,.53Z"/>
            <path class="cls-1" d="M90.26,75.29l2.61-4.95c.15-.28-.06-.62-.37-.62h-5.22c-.32,0-.52,.34-.37,.62l2.61,4.95c.16,.3,.59,.3,.75,0h0Z"/>
            <path class="cls-1" d="M101.39,70.36l-1.66-5.35c-.09-.3-.48-.4-.7-.17l-3.69,3.69c-.22,.22-.13,.61,.17,.7l5.35,1.66c.32,.1,.63-.2,.53-.53Z"/>
            <path class="cls-1" d="M105.78,58.99l-4.95-2.61c-.28-.15-.62,.06-.62,.37v5.22c0,.32,.34,.52,.62,.37l4.95-2.61c.3-.16,.3-.59,0-.75h0Z"/>
            <path class="cls-1" d="M100.85,47.85l-5.35,1.66c-.3,.09-.4,.48-.17,.7l3.69,3.69c.22,.22,.61,.13,.7-.17l1.66-5.35c.1-.32-.2-.63-.53-.53Z"/>
          </g>
          <path class="cls-1" d="M72.47,43.22c-.15,.6-.26,1.09-.32,1.47-.03,.18-.05,.32-.05,.41s.02,.17,.05,.25c-.04,0-.11,.02-.21,.04s-.2,.03-.3,.03c-.11,0-.19-.02-.23-.05s-.07-.09-.07-.18c0-.08,.02-.21,.06-.41,.11-.52,.23-1.04,.37-1.56s.34-1.15,.58-1.9c-.14,.12-.28,.23-.42,.34s-.33,.23-.57,.37c-.04,0-.1-.04-.18-.12-.09-.08-.14-.14-.15-.18,.42-.24,.9-.52,1.44-.85l.22-.14c.23-.02,.37-.04,.42-.04s.07,.03,.05,.08c-.3,1.03-.53,1.85-.68,2.44h-.01Z"/>
          <path class="cls-1" d="M53.91,41.09c0,.06-.02,.16-.07,.3s-.09,.23-.13,.28c-.27-.09-.78-.14-1.55-.14-.54,0-1.09,.03-1.67,.09l-.24,.02s-.1-.12-.14-.21-.06-.17-.06-.22c0-.07,.07-.17,.22-.3,.36-.33,.65-.61,.86-.83s.66-.71,1.36-1.48c.3-.32,.53-.63,.69-.9,.16-.28,.24-.56,.24-.85,0-.25-.07-.44-.2-.58s-.33-.21-.59-.21c-.56,0-1,.36-1.31,1.08-.1,0-.17-.05-.22-.11-.05-.06-.07-.15-.07-.27,0-.24,.08-.46,.24-.68,.16-.21,.38-.38,.67-.51,.28-.13,.59-.19,.93-.19,.48,0,.87,.13,1.15,.4,.28,.27,.42,.6,.42,1.01,0,.27-.06,.52-.18,.76-.12,.24-.27,.46-.44,.65s-.4,.42-.69,.68l-2.22,2.09c.39-.06,.74-.11,1.03-.14,.3-.03,.6-.05,.9-.05,.71,0,1.06,.1,1.06,.31h0Z"/>
        </g>
        <g>
          <path class="cls-1" d="M152.71,37.33c.1-1.45-1.06-2.12-2.12-2.12-1.35,0-2.22,.39-3.19,1.16l-1.55-1.93c4.15-4.15,9.17-6.37,15.84-6.37,4.44,0,7.15,2.42,7.53,6.28,8.69-4.92,11.49-6.28,15.65-6.28,6.37,0,7.24,5.99,7.05,10.24l-1.93,39.4c-.39,7.92-5.6,10.62-11.49,10.62-2.9,0-4.15-.87-4.73-2.41-3.09,1.54-6.86,2.41-11.59,2.41-8.11,0-11.78-4.73-11.4-12.46l1.93-38.53h0Zm16.42,1.53l-2.03,41.91c-.1,1.74,1.16,2.8,2.61,2.8s2.61-.39,3.57-.97v-1.74l2.03-40.95c.1-1.06-.58-2.03-2.51-2.03-1.16,0-2.12,.29-3.67,.97h0Zm27.62-6.36c.1-3.28-.97-4.54-3.77-4.54l.19-3.28c6.18,0,15.26-.77,22.02-1.83l-1.64,33.32h4.73l1.64-34.19c4.93-1.06,10.82-2.03,15.07-2.03,2.51,0,3.86,.58,3.77,2.32l-3.77,75.13c-.39,5.02-5.12,9.75-11.98,9.75-4.25,0-6.86-1.55-6.86-5.41l1.83-40.37h-4.64l-1.54,33.22c0,5.31-5.02,9.66-11.2,9.66-4.44,0-6.47-1.93-6.47-5.41l2.61-66.35h0Z"/>
          <path class="cls-1" d="M249.09,26.32h54.85v4.25h-14.78c-.68,6.18-2.8,11.78-6.08,17,8.11,1.93,16.03,5.31,21.25,10.72-2.12,10.04-9.85,12.26-13.23,9.56-3.48-7.44-5.6-11.01-9.75-17.87-7.44,10.14-19.8,18.25-35.15,23.66l-1.54-3.09c14.29-7.63,21.54-24.14,22.02-39.98h-17.58v-4.25h-.01Zm80.83,50.31l-1.06,20.76c-.29,5.31-8.02,9.66-14.2,9.66-4.44,0-6.66-1.93-6.47-5.41l1.06-20.76h-45.78v-4.25h66.45Zm-19.31-4.64l1.74-37.86c.29-5.12-2.12-6.47-5.79-6.47l.19-3.28c11.49-.39,20.28-4.44,24.92-4.44,1.83,0,2.32,.58,2.22,1.74l-2.41,50.31h-20.87Z"/>
          <path class="cls-1" d="M366.52,50.18c-.39,7.05,2.03,10.14,9.17,10.14s16.22-2.7,23.47-8.21l1.74,3.28c-9.95,8.79-24.05,12.26-36.5,12.26-13.52,0-19.41-4.83-19.02-15.16l.87-17.19c.1-1.45-1.06-2.12-2.12-2.12-1.35,0-3.09,.48-4.06,1.26l-1.64-2.03c4.54-4.54,11.69-8.3,18.45-8.3,6.18,0,11.11,3.09,10.72,8.02l-1.06,18.06h-.02Zm-13.23,24.13h68.47l-1.16,23.08c-.29,5.02-6.08,9.75-12.94,9.75-3.77,0-7.05-1.26-7.63-4.25-4.15,2.61-12.26,4.25-22.6,4.25-13.13,0-21.05-5.31-20.67-13.71l.77-14.87h-4.25v-4.25h.01Zm46.84,24.92l.97-20.67h-23.08l-.77,15.16c-.29,5.7,3.57,8.79,9.37,8.79,4.93,0,10.14-1.16,13.52-3.28h-.01Zm1.35-29.46l1.16-23.47h-17.19v-5.21h17.48l.39-6.95c.29-5.12-2.12-6.47-5.79-6.47l.19-3.28c11.49-.39,20.28-4.44,24.92-4.44,1.83,0,2.32,.58,2.22,1.74l-2.51,48.09h-20.87Z"/>
          <path class="cls-1" d="M485.21,54.04h9.85l.97-19.89c.19-5.12-2.12-6.47-5.79-6.47l.19-3.28c11.49-.39,20.28-4.44,24.92-4.44,1.83,0,2.32,.58,2.22,1.74l-3.67,75.71c-.29,5.31-8.4,9.66-14.58,9.66-4.44,0-6.66-1.93-6.47-5.41l1.93-42.4h-9.75l-.87,18.45c-.39,7.92-6.08,10.62-11.98,10.62-3.67,0-5.7-1.45-6.76-3.67-3.48,2.41-9.95,3.67-15.84,3.67-8.11,0-14.68-4.73-14.29-12.46l1.83-36.5c.1-1.45-1.06-2.12-2.12-2.12-1.35,0-3.09,.48-4.06,1.25l-1.64-2.03c4.54-4.54,12.17-8.31,18.74-8.31,5.79,0,8.98,2.51,8.69,8.02l-.87,16.61h10.24l.68-13.42c.1-1.45-1.06-2.12-2.12-2.12-1.35,0-3.09,.48-4.06,1.25l-1.64-2.03c4.54-4.54,12.17-8.31,18.74-8.31,5.79,0,8.69,2.51,8.4,8.02l-.87,17.87h-.02Zm-20.47,26.84l1.16-23.85h-10.24l-1.16,23.76c-.1,1.74,1.26,2.8,2.7,2.8,2.51,0,5.6-1.06,7.53-2.7h0Z"/>
        </g>
      </g>
    </g>
  </g>
</svg>