<?xml version="1.0" encoding="UTF-8"?>
<svg id="Layer_2" data-name="Layer 2" xmlns="http://www.w3.org/2000/svg" viewBox="0 0 127.72 111.85">
  <defs>
    <style>
      .cls-1 {
        fill: #fff;
      }
    </style>
  </defs>
  <g id="Layer_1-2" data-name="Layer 1">
    <g>
      <g>
        <g>
          <path class="cls-1" d="M57.43,26.38l-1.52-3.44-3.74-.38c-.23-.02-.32-.3-.15-.45l2.81-2.51-.8-3.68c-.05-.22,.19-.39,.39-.28l3.25,1.89,3.25-1.89c.2-.11,.43,.06,.39,.28l-.8,3.68,2.81,2.51c.17,.15,.08,.43-.15,.45l-3.74,.38-1.52,3.44c-.09,.21-.39,.21-.48,0Z"/>
          <path class="cls-1" d="M68,26.02l-.77-1.74-1.89-.19c-.23-.02-.32-.31-.15-.47l1.42-1.27-.4-1.86c-.05-.23,.19-.4,.4-.29l1.64,.96,1.64-.96c.2-.12,.45,.06,.4,.29l-.4,1.86,1.42,1.27c.17,.15,.08,.44-.15,.47l-1.89,.19-.77,1.74c-.09,.21-.4,.21-.49,0Z"/>
          <path class="cls-1" d="M87.09,40.01c-2.58,10.29-11.88,17.91-22.97,17.91-13.08,0-23.68-10.6-23.68-23.68,0-6.8,2.86-12.92,7.45-17.23-.46,1.85-.71,3.78-.71,5.77,0,13.08,10.6,23.68,23.68,23.68,6.29,0,11.99-2.45,16.23-6.45Z"/>
          <g>
            <path class="cls-1" d="M87.12,50.52c-4.18,6.41-11.02,10.93-18.59,12.24-3.8,.69-7.78,.74-11.52-.33-3.73-1.07-7.22-3-9.89-5.71-.08-.08,.02-.21,.12-.16,2.48,1.34,4.96,2.49,7.62,3.28,12.16,3.75,24.1,.73,32.11-9.43,.03-.04,.09-.05,.14-.02,.04,.03,.05,.09,.02,.13h0Z"/>
            <path class="cls-1" d="M64.11,6.06c9.4-.37,18.69,4.42,24.02,12.17,3.45,4.87,5.36,10.78,4.92,16.77-.24,3.51-1.19,7.03-2.92,10.08-.03,.05-.09,.06-.13,.04-.04-.02-.06-.07-.05-.11,.62-2.22,1.06-4.45,1.25-6.69,.19-2.24,.15-4.48-.12-6.69-1.28-11.7-8.82-21.07-20.21-24.34-2.19-.6-4.47-.95-6.76-1.04-.05,0-.1-.05-.1-.1,0-.05,.04-.09,.1-.1h0Z"/>
            <path class="cls-1" d="M35.93,34.24c-.36-6.14,1.53-12.35,5.04-17.39,2.27-3.49,5.66-6.21,9.55-7.7,.66-.21,1.31-.43,1.97-.59,.1-.03,.17,.12,.08,.18-2.14,1.58-4.23,3.16-6.15,4.97-1.39,1.35-2.8,2.7-4.06,4.18-2.07,2.54-3.65,5.46-4.72,8.55-.87,2.49-1.36,5.13-1.52,7.8,0,.05-.05,.1-.1,.09-.05,0-.09-.04-.09-.09h0Z"/>
            <path class="cls-1" d="M40.19,10.94C45.25,5.32,52.26,1.55,59.76,.44c3.77-.59,7.68-.67,11.4,.24,3.72,.91,7.27,2.55,10.19,4.94,.08,.07,0,.21-.1,.17-2.59-1.06-5.14-2-7.83-2.63-12.27-3.03-23.68-.84-33.09,7.91-.04,.04-.1,.04-.14,0-.04-.04-.03-.1,0-.13h0Z"/>
            <path class="cls-1" d="M46.16,62.4c-7.24-4.26-12.64-11.31-15-19.38-1.71-5.78-1.88-11.68,.08-17.43,.64-1.94,1.52-3.8,2.61-5.5,.03-.05,.09-.06,.14-.03,.04,.02,.05,.07,.04,.11-.58,1.93-1.1,3.83-1.46,5.76-.36,1.93-.6,3.86-.68,5.8-.13,3.38-.03,6.83,.67,10.14,1.3,6.24,4.6,12.03,9.12,16.54,1.42,1.39,2.96,2.65,4.58,3.81,.05,.03,.06,.1,.02,.14-.03,.04-.09,.05-.13,.02h0Z"/>
            <path class="cls-1" d="M92.28,16.28c12.65,18.33,2.94,45.84-19.19,50.74-2.95,.68-6,.9-8.98,.62-.05,0-.09-.05-.09-.11,0-.05,.04-.08,.09-.09,5.91-.53,11.57-2.34,16.46-5.39,13.02-7.86,19.24-22.84,15.06-37.57-.81-2.83-2-5.55-3.52-8.09-.03-.05-.01-.11,.03-.13,.04-.03,.1-.01,.13,.03h0Z"/>
            <circle class="cls-1" cx="77.72" cy="31.65" r="4.22"/>
          </g>
          <path class="cls-1" d="M77.52,23.17l-1.39,2.64c-.08,.15,.03,.33,.2,.33h2.78c.17,0,.28-.18,.2-.33l-1.39-2.64c-.08-.16-.31-.16-.4,0Z"/>
          <path class="cls-1" d="M71.58,25.8l.88,2.85c.05,.16,.25,.21,.37,.09l1.97-1.97c.12-.12,.07-.32-.09-.37l-2.85-.88c-.17-.05-.34,.11-.28,.28Z"/>
          <path class="cls-1" d="M69.24,31.86l2.64,1.39c.15,.08,.33-.03,.33-.2v-2.78c0-.17-.18-.28-.33-.2l-2.64,1.39c-.16,.08-.16,.31,0,.4Z"/>
          <path class="cls-1" d="M71.87,37.8l2.85-.88c.16-.05,.21-.25,.09-.37l-1.97-1.97c-.12-.12-.32-.07-.37,.09l-.88,2.85c-.05,.17,.11,.34,.28,.28Z"/>
          <path class="cls-1" d="M77.93,40.13l1.39-2.64c.08-.15-.03-.33-.2-.33h-2.78c-.17,0-.28,.18-.2,.33l1.39,2.64c.08,.16,.31,.16,.4,0Z"/>
          <path class="cls-1" d="M83.87,37.5l-.88-2.85c-.05-.16-.25-.21-.37-.09l-1.97,1.97c-.12,.12-.07,.32,.09,.37l2.85,.88c.17,.05,.34-.11,.28-.28Z"/>
          <path class="cls-1" d="M86.21,31.44l-2.64-1.39c-.15-.08-.33,.03-.33,.2v2.78c0,.17,.18,.28,.33,.2l2.64-1.39c.16-.08,.16-.31,0-.4Z"/>
          <path class="cls-1" d="M83.58,25.51l-2.85,.88c-.16,.05-.21,.25-.09,.37l1.97,1.97c.12,.12,.32,.07,.37-.09l.88-2.85c.05-.17-.11-.34-.28-.28Z"/>
        </g>
        <path class="cls-1" d="M68.45,23.04c-.08,.32-.14,.58-.17,.78-.02,.1-.02,.17-.02,.22s0,.09,.03,.13c-.02,0-.06,0-.11,.02-.05,.01-.11,.02-.16,.02-.06,0-.1,0-.12-.03-.02-.02-.04-.05-.04-.1,0-.04,.01-.11,.03-.22,.06-.28,.12-.56,.2-.83,.08-.28,.18-.62,.31-1.01-.07,.06-.15,.12-.23,.18s-.18,.12-.31,.2c-.02,0-.05-.02-.1-.06-.05-.04-.07-.07-.08-.1,.22-.13,.48-.28,.77-.45l.12-.07c.12-.01,.19-.02,.22-.02,.03,0,.04,.01,.03,.04-.16,.55-.28,.98-.36,1.3Z"/>
        <path class="cls-1" d="M58.56,21.9s-.01,.08-.04,.16c-.02,.07-.05,.12-.07,.15-.14-.05-.42-.07-.83-.07-.29,0-.58,.02-.89,.05h-.13s-.05-.05-.07-.1-.03-.09-.03-.12c0-.04,.04-.09,.12-.16,.19-.18,.35-.32,.46-.44s.35-.38,.72-.79c.16-.17,.28-.33,.37-.48,.09-.15,.13-.3,.13-.45,0-.13-.04-.23-.11-.31s-.18-.11-.31-.11c-.3,0-.53,.19-.7,.57-.05,0-.09-.03-.12-.06-.02-.03-.04-.08-.04-.14,0-.13,.04-.25,.13-.36,.09-.11,.21-.2,.36-.27,.15-.07,.32-.1,.5-.1,.26,0,.46,.07,.61,.21,.15,.14,.23,.32,.23,.54,0,.14-.03,.28-.1,.41-.07,.13-.14,.24-.24,.34s-.21,.22-.37,.36l-1.18,1.11c.21-.03,.39-.06,.55-.07,.16-.02,.32-.03,.48-.03,.38,0,.57,.06,.57,.16Z"/>
      </g>
      <g>
        <path class="cls-1" d="M2.36,87.86c.03-.5-.37-.73-.73-.73-.46,0-.76,.13-1.1,.4l-.53-.66c1.43-1.43,3.15-2.19,5.44-2.19,1.53,0,2.46,.83,2.59,2.16,2.99-1.69,3.95-2.16,5.38-2.16,2.19,0,2.49,2.06,2.42,3.52l-.66,13.54c-.13,2.72-1.92,3.65-3.95,3.65-1,0-1.43-.3-1.63-.83-1.06,.53-2.36,.83-3.98,.83-2.79,0-4.05-1.63-3.92-4.28l.66-13.24Zm5.64,.53l-.7,14.4c-.03,.6,.4,.96,.9,.96s.9-.13,1.23-.33v-.6l.7-14.07c.03-.37-.2-.7-.86-.7-.4,0-.73,.1-1.26,.33Zm9.49-2.19c.03-1.13-.33-1.56-1.29-1.56l.07-1.13c2.12,0,5.24-.27,7.57-.63l-.56,11.45h1.63l.56-11.75c1.69-.37,3.72-.7,5.18-.7,.86,0,1.33,.2,1.29,.8l-1.29,25.82c-.13,1.73-1.76,3.35-4.11,3.35-1.46,0-2.36-.53-2.36-1.86l.63-13.87h-1.59l-.53,11.41c0,1.82-1.73,3.32-3.85,3.32-1.53,0-2.22-.66-2.22-1.86l.9-22.8Z"/>
        <path class="cls-1" d="M35.47,84.08h18.85v1.46h-5.08c-.23,2.12-.96,4.05-2.09,5.84,2.79,.66,5.51,1.82,7.3,3.68-.73,3.45-3.38,4.21-4.55,3.28-1.19-2.55-1.92-3.78-3.35-6.14-2.55,3.48-6.8,6.27-12.08,8.13l-.53-1.06c4.91-2.62,7.4-8.3,7.57-13.74h-6.04v-1.46Zm27.77,17.29l-.36,7.13c-.1,1.82-2.75,3.32-4.88,3.32-1.53,0-2.29-.66-2.22-1.86l.36-7.13h-15.73v-1.46h22.83Zm-6.64-1.59l.6-13.01c.1-1.76-.73-2.22-1.99-2.22l.07-1.13c3.95-.13,6.97-1.53,8.56-1.53,.63,0,.8,.2,.76,.6l-.83,17.29h-7.17Z"/>
        <path class="cls-1" d="M75.82,92.28c-.13,2.42,.7,3.48,3.15,3.48s5.57-.93,8.06-2.82l.6,1.13c-3.42,3.02-8.26,4.21-12.54,4.21-4.65,0-6.67-1.66-6.54-5.21l.3-5.91c.03-.5-.37-.73-.73-.73-.46,0-1.06,.17-1.39,.43l-.56-.7c1.56-1.56,4.01-2.85,6.34-2.85,2.12,0,3.82,1.06,3.68,2.75l-.37,6.2Zm-4.55,8.3h23.53l-.4,7.93c-.1,1.73-2.09,3.35-4.45,3.35-1.29,0-2.42-.43-2.62-1.46-1.43,.9-4.21,1.46-7.76,1.46-4.51,0-7.23-1.82-7.1-4.71l.27-5.11h-1.46v-1.46Zm16.09,8.56l.33-7.1h-7.93l-.27,5.21c-.1,1.96,1.23,3.02,3.22,3.02,1.69,0,3.48-.4,4.65-1.13Zm.46-10.12l.4-8.06h-5.91v-1.79h6.01l.13-2.39c.1-1.76-.73-2.22-1.99-2.22l.07-1.13c3.95-.13,6.97-1.53,8.56-1.53,.63,0,.8,.2,.76,.6l-.86,16.52h-7.17Z"/>
        <path class="cls-1" d="M116.6,93.6h3.38l.33-6.84c.07-1.76-.73-2.22-1.99-2.22l.07-1.13c3.95-.13,6.97-1.53,8.56-1.53,.63,0,.8,.2,.76,.6l-1.26,26.01c-.1,1.82-2.89,3.32-5.01,3.32-1.53,0-2.29-.66-2.22-1.86l.66-14.57h-3.35l-.3,6.34c-.13,2.72-2.09,3.65-4.11,3.65-1.26,0-1.96-.5-2.32-1.26-1.19,.83-3.42,1.26-5.44,1.26-2.79,0-5.04-1.63-4.91-4.28l.63-12.54c.03-.5-.37-.73-.73-.73-.46,0-1.06,.17-1.39,.43l-.56-.7c1.56-1.56,4.18-2.85,6.44-2.85,1.99,0,3.09,.86,2.99,2.75l-.3,5.71h3.52l.23-4.61c.03-.5-.36-.73-.73-.73-.46,0-1.06,.17-1.39,.43l-.56-.7c1.56-1.56,4.18-2.85,6.44-2.85,1.99,0,2.99,.86,2.89,2.75l-.3,6.14Zm-7.03,9.22l.4-8.2h-3.52l-.4,8.16c-.03,.6,.43,.96,.93,.96,.86,0,1.92-.36,2.59-.93Z"/>
      </g>
    </g>
  </g>
</svg>